<svg width="20" height="24" viewBox="0 0 14 18" fill="none" xmlns="http://www.w3.org/2000/svg">
<path d="M9.12392 9.27157C9.28177 9.42799 9.51815 9.42799 9.676 9.27157C9.79457 9.15407 9.97166 9.09607 10.1295 9.09607C10.2874 9.09607 10.4452 9.15483 10.583 9.27157C10.8194 9.52566 10.8194 9.91634 10.583 10.1704L9.40035 11.3424L8.21768 10.1704C7.96128 9.91634 7.96128 9.52566 8.21768 9.27157C8.47332 9.03732 8.86752 9.03732 9.12392 9.27157Z" fill="currentColor"/>
<path d="M5.7137 3.56793H13.0662C13.2833 3.56793 13.4604 3.74343 13.4604 3.9586V16.8309C13.4604 17.0461 13.2833 17.2215 13.0662 17.2215H5.7137C5.49656 17.2215 5.31947 17.046 5.31947 16.8309V3.9586C5.31947 3.74342 5.49733 3.56793 5.7137 3.56793ZM11.6077 5.50145L11.9234 5.11078L12.2391 5.50145C12.377 5.67695 12.6133 5.69678 12.7912 5.5602C12.9683 5.42362 12.9883 5.18937 12.8505 5.0131L12.2391 4.23176C12.0813 4.03642 11.7664 4.03642 11.6085 4.23176L10.9972 5.0131C10.8593 5.1886 10.8986 5.42362 11.0564 5.5602C11.135 5.61895 11.2143 5.63803 11.2928 5.63803C11.4299 5.65787 11.5284 5.59912 11.6077 5.50145ZM9.39949 12.2794C9.49805 12.2794 9.5966 12.2405 9.67513 12.1619L11.1334 10.7167C11.6855 10.1696 11.6855 9.27156 11.1334 8.7245C10.6607 8.25601 9.95077 8.17741 9.3987 8.50932C8.84663 8.17741 8.1375 8.25523 7.66396 8.7245C7.11189 9.2716 7.11189 10.1697 7.66396 10.7167L9.12227 12.1619C9.20235 12.2405 9.30095 12.2794 9.39949 12.2794ZM5.95003 15.7566L6.56139 16.5379C6.63993 16.6356 6.75851 16.6944 6.87709 16.6944C6.99566 16.6944 7.11347 16.6356 7.19278 16.5379L7.80415 15.7566C7.94197 15.5811 7.9027 15.3461 7.74486 15.2095C7.56777 15.0729 7.33061 15.1118 7.19279 15.2683L6.87709 15.6589L6.5614 15.2683C6.42357 15.0928 6.1872 15.0729 6.00933 15.2095C5.83223 15.3461 5.81221 15.5811 5.95003 15.7566Z" fill="currentColor"/>
<path d="M0.806013 3.5869L7.90204 0.833055C7.96133 0.813217 8.03987 0.813217 8.09915 0.833055C8.15844 0.852893 8.21773 0.910885 8.23698 0.969638L8.9469 2.76657H5.71466C5.06403 2.76657 4.53198 3.29383 4.53198 3.93859L4.53121 13.7054L0.648307 3.93859C0.609038 3.80201 0.668189 3.64566 0.806013 3.5869Z" fill="currentColor"/>
</svg>
