<svg width="24" height="18" viewBox="0 0 16 10" fill="none" xmlns="http://www.w3.org/2000/svg">
<path d="M11.848 3.30664C11.4122 3.30664 11.0576 3.66125 11.0576 4.09707C11.0576 4.53292 11.4122 4.8875 11.848 4.8875C12.2839 4.8875 12.6385 4.53289 12.6385 4.09707C12.6385 3.66125 12.2839 3.30664 11.848 3.30664Z" fill="currentColor"/>
<path d="M15.4561 6.46202L14.6115 1.8743C14.4115 0.788262 13.4668 0 12.3652 0H10.8138C10.7082 -1.16264e-06 10.6062 0.0380216 10.5263 0.107109L9.63383 0.87917H6.36614L5.47364 0.107109C5.39379 0.0380285 5.29173 6.70508e-06 5.18615 0H3.63479C2.53314 0 1.58837 0.788233 1.38848 1.8743L0.543822 6.46202C0.285951 7.86246 1.1919 9.21097 2.58409 9.49723C3.56041 9.69797 4.54824 9.3337 5.16207 8.54661L6.12693 7.30946H9.87309L10.838 8.54661C11.4481 9.32892 12.4336 9.69917 13.4159 9.49723C14.8048 9.21165 15.7146 7.86545 15.4561 6.46202ZM5.38645 4.53583H4.74974V5.17254C4.74974 5.41524 4.55298 5.612 4.31029 5.612C4.06759 5.612 3.87084 5.41524 3.87084 5.17254V4.53583H3.23415C2.99146 4.53583 2.7947 4.33908 2.7947 4.09638C2.7947 3.85368 2.99146 3.65693 3.23415 3.65693H3.87086V3.02019C3.87086 2.77749 4.06762 2.58073 4.31032 2.58073C4.55301 2.58073 4.74977 2.77749 4.74977 3.02019V3.65693H5.38645C5.62915 3.65693 5.8259 3.85368 5.8259 4.09638C5.8259 4.33908 5.62915 4.53583 5.38645 4.53583ZM11.8481 5.76572C10.9276 5.76572 10.1787 5.01686 10.1787 4.09638C10.1787 3.1759 10.9276 2.42704 11.8481 2.42704C12.7685 2.42704 13.5174 3.1759 13.5174 4.09638C13.5174 5.01689 12.7686 5.76572 11.8481 5.76572Z" fill="currentColor"/>
</svg>
