<svg viewBox="0 0 194 100" fill="none" xmlns="http://www.w3.org/2000/svg">
<path d="M191.307 67.9198C186.823 81.3234 174.32 90.3309 160.194 90.3309H53.4223L75.3946 24.6611H160.194C170.877 24.6611 180.583 29.6391 186.825 38.3142C193.065 46.9913 194.701 57.7828 191.307 67.9198H191.307Z" fill="url(#paint0_linear_8845_8887)"/>
<path d="M44.9841 97.4173C67.5354 97.4173 85.8168 79.1237 85.8168 56.5573C85.8168 33.9909 67.5354 15.6973 44.9841 15.6973C22.4329 15.6973 4.15149 33.9909 4.15149 56.5573C4.15149 79.1237 22.4329 97.4173 44.9841 97.4173Z" fill="white"/>
<path d="M45.2425 57.4595L44.5735 16.9998L44.348 17.0007L44.0017 57.4648L45.2425 57.4595Z" fill="#565F64"/>
<path d="M44.6922 54.2808C43.6142 54.2808 42.74 55.1555 42.74 56.2344C42.74 57.3133 43.6142 58.188 44.6922 58.188C45.7701 58.188 46.6444 57.3133 46.6444 56.2344C46.6444 55.1555 45.7701 54.2808 44.6922 54.2808ZM44.6922 57.4486C44.0208 57.4486 43.4784 56.9058 43.4784 56.2339C43.4784 55.562 44.0208 55.0167 44.6922 55.0167C45.3636 55.0167 45.906 55.562 45.906 56.2339C45.906 56.9058 45.3636 57.4486 44.6922 57.4486Z" fill="#2CE28B"/>
<path d="M49.0029 2.81201H39.7609V17.6745H49.0029V2.81201Z" fill="#565F64"/>
<path d="M36.9588 0.956199V6.97067C36.9588 7.4987 37.3868 7.92676 37.9149 7.92676L50.8556 7.92676C51.3836 7.92676 51.8117 7.4987 51.8117 6.97067V0.956199C51.8117 0.428164 51.3836 0.000109196 50.8556 0.000109196L37.9149 0.000109196C37.3868 0.000109196 36.9588 0.428164 36.9588 0.956199Z" fill="#2CE28B"/>
<path d="M83.0401 23.243L79.5938 26.6715L75.8383 30.4043L71.3859 25.9211L75.1616 22.168L78.5876 18.7598L83.0401 23.243Z" fill="#565F64"/>
<path d="M78.1282 16.5165L75.2247 19.4029C74.9656 19.6604 74.9644 20.0791 75.2219 20.3381L81.4496 26.603C81.7071 26.862 82.1259 26.8632 82.3849 26.6057L85.2884 23.7194C85.5474 23.4619 85.5487 23.0432 85.2912 22.7841L79.0634 16.5193C78.8059 16.2603 78.3872 16.2591 78.1282 16.5165Z" fill="#2CE28B"/>
<path d="M18.0013 25.9211L13.5488 30.4043L10.2369 27.1103L6.34418 23.243L10.7966 18.7598L14.6104 22.5509L18.0013 25.9211Z" fill="#565F64"/>
<path d="M4.10184 23.7148L7.00539 26.6012C7.26441 26.8586 7.68313 26.8574 7.94063 26.5984L14.1684 20.3336C14.4259 20.0745 14.4246 19.6558 14.1656 19.3983L11.2621 16.512C11.003 16.2545 10.5843 16.2557 10.3268 16.5147L4.09907 22.7796C3.84157 23.0386 3.84282 23.4573 4.10184 23.7148Z" fill="#2CE28B"/>
<path d="M44.6939 99.9971C20.5782 99.9971 0.958771 80.3647 0.958771 56.2327C0.958771 32.1006 20.5782 12.4683 44.6939 12.4683C68.8096 12.4683 88.429 32.1006 88.429 56.2327C88.429 80.3647 68.8096 99.9971 44.6939 99.9971ZM44.6939 18.5251C23.9156 18.5251 7.0113 35.4409 7.0113 56.2327C7.0113 77.0244 23.9156 93.9403 44.6939 93.9403C65.4722 93.9403 82.3765 77.0244 82.3765 56.2327C82.3765 35.4409 65.4722 18.5251 44.6939 18.5251Z" fill="#2CE28B"/>
<path d="M45.2064 83.1611V89.663C45.0364 89.6654 44.8644 89.6683 44.692 89.6683C44.5196 89.6683 44.3447 89.6659 44.1723 89.663V83.1611C44.2051 83.1635 44.2407 83.1635 44.2734 83.1635C44.4126 83.166 44.5523 83.1688 44.6915 83.1688C44.8307 83.1688 44.968 83.1664 45.1048 83.1635C45.1375 83.1635 45.1732 83.1635 45.2059 83.1611H45.2064Z" fill="#565F64"/>
<path d="M45.2112 22.8071V29.309C45.1784 29.3066 45.1428 29.3066 45.11 29.3066C44.9732 29.3041 44.8364 29.3013 44.6968 29.3013C44.5571 29.3013 44.4179 29.3037 44.2787 29.3066C44.2459 29.3066 44.2103 29.3066 44.1775 29.309V22.8071C44.35 22.8046 44.5248 22.8018 44.6972 22.8018C44.8697 22.8018 45.0421 22.8042 45.2116 22.8071H45.2112Z" fill="#565F64"/>
<path d="M78.1075 56.2302C78.1075 56.4026 78.1051 56.5751 78.1022 56.7475H71.6046C71.607 56.7147 71.607 56.6791 71.607 56.6459C71.6094 56.5091 71.6123 56.3694 71.6123 56.2302C71.6123 56.091 71.6099 55.9513 71.607 55.8145C71.607 55.7818 71.607 55.7461 71.6046 55.7129H78.1022C78.1046 55.8853 78.1075 56.0578 78.1075 56.2302Z" fill="#565F64"/>
<path d="M17.7817 56.6459C17.7817 56.6786 17.7817 56.7143 17.7841 56.7475H11.2865C11.2841 56.5751 11.2817 56.4026 11.2817 56.2302C11.2817 56.0578 11.2841 55.8853 11.2865 55.7129H17.7841C17.7817 55.7456 17.7817 55.7813 17.7817 55.8145C17.7793 55.9513 17.7764 56.091 17.7764 56.2302C17.7764 56.3694 17.7788 56.5091 17.7817 56.6459Z" fill="#565F64"/>
<path d="M31.6881 32.6604C31.6578 32.6758 31.6298 32.6907 31.5995 32.7085C31.3563 32.8429 31.1178 32.9826 30.8799 33.1242C30.852 33.142 30.8216 33.1599 30.7937 33.1777L27.5473 27.5481C27.8411 27.3703 28.1378 27.1979 28.4393 27.0308L31.6881 32.6604Z" fill="#565F64"/>
<path d="M61.842 84.9162C61.5482 85.0964 61.249 85.2688 60.9499 85.4359L57.7036 79.8063C57.7315 79.7909 57.7618 79.7736 57.7898 79.7582C58.0306 79.6238 58.2714 79.4841 58.5094 79.3396C58.5373 79.3218 58.5652 79.3068 58.5932 79.2861L61.842 84.9158V84.9162Z" fill="#565F64"/>
<path d="M73.8774 39.9677L68.2516 43.2184C68.2362 43.188 68.2189 43.1601 68.2035 43.1298C68.0667 42.8865 67.9299 42.6481 67.7854 42.4097C67.7676 42.3817 67.7526 42.3538 67.7348 42.3259L73.3582 39.0723C73.5354 39.369 73.7079 39.6657 73.8779 39.9672L73.8774 39.9677Z" fill="#565F64"/>
<path d="M21.6587 70.1474L16.0329 73.3981C15.8556 73.1038 15.6832 72.8071 15.5161 72.5056L21.1418 69.2549C21.1572 69.2852 21.1722 69.3132 21.19 69.3435C21.3244 69.5867 21.4612 69.8252 21.6057 70.0636C21.6235 70.0915 21.6384 70.1195 21.6591 70.1474H21.6587Z" fill="#565F64"/>
<path d="M73.8826 72.4949C73.7155 72.7969 73.5431 73.0936 73.3658 73.3874L67.74 70.1391C67.7578 70.1111 67.7757 70.0808 67.7935 70.0528C67.9356 69.8144 68.0748 69.576 68.2092 69.3328C68.2246 69.3024 68.2419 69.2745 68.2573 69.2441L73.8831 72.4949H73.8826Z" fill="#565F64"/>
<path d="M21.6487 42.3313C21.6309 42.3592 21.6131 42.3896 21.5953 42.4175C21.4532 42.6535 21.314 42.8944 21.1796 43.1352C21.1642 43.1655 21.1468 43.1935 21.1314 43.2238L15.5056 39.9755C15.6728 39.6735 15.8452 39.3773 16.0225 39.083L21.6482 42.3313H21.6487Z" fill="#565F64"/>
<path d="M31.6909 79.8083L28.4446 85.4379C28.143 85.2703 27.8463 85.0979 27.5525 84.9206L30.7989 79.291C30.8268 79.3088 30.8572 79.3267 30.8851 79.3445C31.1207 79.4866 31.3615 79.6258 31.6047 79.7602C31.6327 79.7756 31.663 79.7929 31.6909 79.8083Z" fill="#565F64"/>
<path d="M61.8392 27.5451L58.5904 33.1723C58.5625 33.1545 58.5345 33.1396 58.5066 33.1217C58.2682 32.9796 58.0278 32.8376 57.7846 32.7032C57.7566 32.6878 57.7263 32.6704 57.6984 32.655L60.9447 27.0254C61.2463 27.1925 61.5454 27.3678 61.8392 27.5451Z" fill="#565F64"/>
<path d="M44.6934 57.447C44.022 57.447 43.4796 56.9042 43.4796 56.2323C43.4796 55.5604 44.022 55.0151 44.6934 55.0151C45.3648 55.0151 45.9072 55.5604 45.9072 56.2323C45.9072 56.9042 45.3648 57.447 44.6934 57.447Z" fill="#565F64"/>
<path d="M145.075 54.6827L144.175 55.5695C143.966 55.7752 143.63 55.7752 143.421 55.5695L142.52 54.6827C142.418 54.582 142.36 54.4444 142.36 54.2996V47.7403C142.36 47.2622 142.939 47.0224 143.276 47.3615L145.077 49.1663C145.178 49.267 145.234 49.4032 145.234 49.5451V54.2996C145.234 54.4429 145.176 54.5806 145.074 54.6827H145.075Z" fill="white"/>
<path d="M151.123 54.6827L152.024 55.5695C152.232 55.7752 152.569 55.7752 152.777 55.5695L153.678 54.6827C153.78 54.582 153.839 54.4444 153.839 54.2996V47.7403C153.839 47.2622 153.26 47.0224 152.922 47.3615L151.121 49.1663C151.021 49.267 150.964 49.4032 150.964 49.5451V54.2996C150.964 54.4429 151.022 54.5806 151.124 54.6827H151.123Z" fill="white"/>
<path d="M145.284 48.9524L143.472 47.1519C143.133 46.8142 143.371 46.2339 143.851 46.2339H152.35C152.828 46.2339 153.068 46.8114 152.73 47.149L150.937 48.9495C150.836 49.0503 150.7 49.107 150.556 49.107H145.663C145.521 49.107 145.385 49.0503 145.284 48.951V48.9524Z" fill="white"/>
<path d="M151.123 57.8282L152.024 56.9414C152.232 56.7357 152.569 56.7357 152.777 56.9414L153.678 57.8282C153.78 57.9289 153.839 58.0665 153.839 58.2113V64.7706C153.839 65.2487 153.26 65.4885 152.922 65.1494L151.121 63.3446C151.021 63.2439 150.964 63.1077 150.964 62.9658V58.2113C150.964 58.068 151.022 57.9303 151.124 57.8282H151.123Z" fill="white"/>
<path d="M145.075 57.8282L144.175 56.9414C143.966 56.7357 143.63 56.7357 143.421 56.9414L142.52 57.8282C142.418 57.9289 142.36 58.0665 142.36 58.2113V64.7706C142.36 65.2487 142.939 65.4885 143.276 65.1494L145.077 63.3446C145.178 63.2439 145.234 63.1077 145.234 62.9658V58.2113C145.234 58.068 145.176 57.9303 145.074 57.8282H145.075Z" fill="white"/>
<path d="M150.906 63.5565L152.718 65.357C153.057 65.6947 152.819 66.275 152.34 66.275H143.841C143.362 66.275 143.123 65.6975 143.46 65.3599L145.254 63.5593C145.355 63.4586 145.491 63.4019 145.634 63.4019H150.528C150.67 63.4019 150.806 63.4586 150.906 63.5579V63.5565Z" fill="white"/>
<path d="M161.966 54.6827L161.065 55.5695C160.857 55.7752 160.52 55.7752 160.312 55.5695L159.411 54.6827C159.309 54.582 159.25 54.4444 159.25 54.2996V47.7403C159.25 47.2622 159.829 47.0224 160.167 47.3615L161.968 49.1663C162.068 49.267 162.125 49.4032 162.125 49.5451V54.2996C162.125 54.4429 162.067 54.5806 161.965 54.6827H161.966Z" fill="white"/>
<path d="M168.014 54.6827L168.914 55.5695C169.123 55.7752 169.459 55.7752 169.668 55.5695L170.569 54.6827C170.671 54.582 170.729 54.4444 170.729 54.2996V47.7403C170.729 47.2622 170.15 47.0224 169.813 47.3615L168.012 49.1663C167.911 49.267 167.855 49.4032 167.855 49.5451V54.2996C167.855 54.4429 167.913 54.5806 168.015 54.6827H168.014Z" fill="white"/>
<path d="M162.175 48.9524L160.363 47.1519C160.024 46.8142 160.262 46.2339 160.742 46.2339H169.24C169.719 46.2339 169.958 46.8114 169.621 47.149L167.827 48.9495C167.727 49.0503 167.59 49.107 167.447 49.107H162.553C162.412 49.107 162.275 49.0503 162.175 48.951V48.9524Z" fill="white"/>
<path d="M168.014 57.8282L168.914 56.9414C169.123 56.7357 169.459 56.7357 169.668 56.9414L170.569 57.8282C170.671 57.9289 170.729 58.0665 170.729 58.2113V64.7706C170.729 65.2487 170.15 65.4885 169.813 65.1494L168.012 63.3446C167.911 63.2439 167.855 63.1077 167.855 62.9658V58.2113C167.855 58.068 167.913 57.9303 168.015 57.8282H168.014Z" fill="white"/>
<path d="M161.966 57.8282L161.065 56.9414C160.857 56.7357 160.52 56.7357 160.312 56.9414L159.411 57.8282C159.309 57.9289 159.25 58.0665 159.25 58.2113V64.7706C159.25 65.2487 159.829 65.4885 160.167 65.1494L161.968 63.3446C162.068 63.2439 162.125 63.1077 162.125 62.9658V58.2113C162.125 58.068 162.067 57.9303 161.965 57.8282H161.966Z" fill="white"/>
<path d="M167.797 63.5565L169.609 65.357C169.948 65.6947 169.71 66.275 169.23 66.275H160.731C160.253 66.275 160.013 65.6975 160.351 65.3599L162.144 63.5593C162.245 63.4586 162.381 63.4019 162.525 63.4019H167.418C167.56 63.4019 167.696 63.4586 167.797 63.5579V63.5565Z" fill="white"/>
<path d="M102.37 54.6827L101.469 55.5695C101.26 55.7752 100.924 55.7752 100.715 55.5695L99.8144 54.6827C99.7123 54.582 99.6541 54.4444 99.6541 54.2996V47.7403C99.6541 47.2622 100.233 47.0224 100.571 47.3615L102.371 49.1663C102.472 49.267 102.529 49.4032 102.529 49.5451V54.2996C102.529 54.4429 102.47 54.5806 102.368 54.6827H102.37Z" fill="white"/>
<path d="M108.417 54.6827L109.318 55.5695C109.527 55.7752 109.863 55.7752 110.072 55.5695L110.972 54.6827C111.075 54.582 111.133 54.4444 111.133 54.2996V47.7403C111.133 47.2622 110.554 47.0224 110.216 47.3615L108.416 49.1663C108.315 49.267 108.258 49.4032 108.258 49.5451V54.2996C108.258 54.4429 108.316 54.5806 108.419 54.6827H108.417Z" fill="white"/>
<path d="M102.578 48.9524L100.766 47.1519C100.427 46.8142 100.666 46.2339 101.145 46.2339H109.644C110.122 46.2339 110.362 46.8114 110.024 47.149L108.231 48.9495C108.13 49.0503 107.994 49.107 107.851 49.107H102.957C102.815 49.107 102.679 49.0503 102.578 48.951V48.9524Z" fill="white"/>
<path d="M108.417 57.8282L109.318 56.9414C109.527 56.7357 109.863 56.7357 110.072 56.9414L110.972 57.8282C111.075 57.9289 111.133 58.0665 111.133 58.2113V64.7706C111.133 65.2487 110.554 65.4885 110.216 65.1494L108.416 63.3446C108.315 63.2439 108.258 63.1077 108.258 62.9658V58.2113C108.258 58.068 108.316 57.9303 108.419 57.8282H108.417Z" fill="white"/>
<path d="M102.37 57.8282L101.469 56.9414C101.26 56.7357 100.924 56.7357 100.715 56.9414L99.8144 57.8282C99.7123 57.9289 99.6541 58.0665 99.6541 58.2113V64.7706C99.6541 65.2487 100.233 65.4885 100.571 65.1494L102.371 63.3446C102.472 63.2439 102.529 63.1077 102.529 62.9658V58.2113C102.529 58.068 102.47 57.9303 102.368 57.8282H102.37Z" fill="white"/>
<path d="M108.201 63.5565L110.013 65.357C110.352 65.6947 110.113 66.275 109.634 66.275H101.135C100.657 66.275 100.417 65.6975 100.755 65.3599L102.548 63.5593C102.649 63.4586 102.785 63.4019 102.928 63.4019H107.822C107.964 63.4019 108.1 63.4586 108.201 63.5579V63.5565Z" fill="white"/>
<path d="M119.263 54.6827L118.362 55.5695C118.153 55.7752 117.817 55.7752 117.609 55.5695L116.708 54.6827C116.605 54.582 116.547 54.4444 116.547 54.2996V47.7403C116.547 47.2622 117.126 47.0224 117.464 47.3615L119.264 49.1663C119.365 49.267 119.422 49.4032 119.422 49.5451V54.2996C119.422 54.4429 119.364 54.5806 119.262 54.6827H119.263Z" fill="white"/>
<path d="M125.31 54.6827L126.211 55.5695C126.42 55.7752 126.756 55.7752 126.965 55.5695L127.866 54.6827C127.968 54.582 128.026 54.4444 128.026 54.2996V47.7403C128.026 47.2622 127.447 47.0224 127.109 47.3615L125.309 49.1663C125.208 49.267 125.151 49.4032 125.151 49.5451V54.2996C125.151 54.4429 125.21 54.5806 125.312 54.6827H125.31Z" fill="white"/>
<path d="M119.471 48.9524L117.66 47.1519C117.321 46.8142 117.559 46.2339 118.038 46.2339H126.537C127.015 46.2339 127.255 46.8114 126.918 47.149L125.124 48.9495C125.023 49.0503 124.887 49.107 124.744 49.107H119.85C119.708 49.107 119.572 49.0503 119.471 48.951V48.9524Z" fill="white"/>
<path d="M125.31 57.8282L126.211 56.9414C126.42 56.7357 126.756 56.7357 126.965 56.9414L127.866 57.8282C127.968 57.9289 128.026 58.0665 128.026 58.2113V64.7706C128.026 65.2487 127.447 65.4885 127.109 65.1494L125.309 63.3446C125.208 63.2439 125.151 63.1077 125.151 62.9658V58.2113C125.151 58.068 125.21 57.9303 125.312 57.8282H125.31Z" fill="white"/>
<path d="M119.263 57.8282L118.362 56.9414C118.153 56.7357 117.817 56.7357 117.609 56.9414L116.708 57.8282C116.605 57.9289 116.547 58.0665 116.547 58.2113V64.7706C116.547 65.2487 117.126 65.4885 117.464 65.1494L119.264 63.3446C119.365 63.2439 119.422 63.1077 119.422 62.9658V58.2113C119.422 58.068 119.364 57.9303 119.262 57.8282H119.263Z" fill="white"/>
<path d="M125.094 63.5565L126.906 65.357C127.245 65.6947 127.007 66.275 126.527 66.275H118.028C117.55 66.275 117.31 65.6975 117.648 65.3599L119.441 63.5593C119.542 63.4586 119.678 63.4019 119.822 63.4019H124.715C124.857 63.4019 124.993 63.4586 125.094 63.5579V63.5565Z" fill="white"/>
<path d="M135.135 51.4911C135.718 51.4911 136.191 51.0185 136.191 50.4355C136.191 49.8525 135.718 49.3799 135.135 49.3799C134.552 49.3799 134.08 49.8525 134.08 50.4355C134.08 51.0185 134.552 51.4911 135.135 51.4911Z" fill="white"/>
<path d="M135.349 63.1942C135.932 63.1942 136.405 62.7216 136.405 62.1386C136.405 61.5556 135.932 61.083 135.349 61.083C134.766 61.083 134.293 61.5556 134.293 62.1386C134.293 62.7216 134.766 63.1942 135.349 63.1942Z" fill="white"/>
<defs>
<linearGradient id="paint0_linear_8845_8887" x1="193.041" y1="24.8791" x2="107" y2="154.731" gradientUnits="userSpaceOnUse">
<stop stop-color="#2CE28B"/>
<stop offset="1" stop-color="#8CDBB5" stop-opacity="0.43"/>
</linearGradient>
</defs>
</svg>
