<svg viewBox="0 0 24 24"
     fill="none"
     xmlns="http://www.w3.org/2000/svg">
    <path d="M12 24C18.6274 24 24 18.6274 24 12C24 5.37258 18.6274 0 12 0C5.37258 0 0 5.37258 0 12C0 18.6274 5.37258 24 12 24Z"
          fill="#26A17B" />
    <path fill-rule="evenodd"
          clip-rule="evenodd"
          d="M13.4418 13.0377V13.0362C13.3593 13.0422 12.934 13.0677 11.9853 13.0677C11.2278 13.0677 10.6945 13.0452 10.507 13.0362V13.0385C7.59101 12.9102 5.41451 12.4025 5.41451 11.795C5.41451 11.1882 7.59101 10.6805 10.507 10.55V12.533C10.6975 12.5465 11.2435 12.5787 11.998 12.5787C12.9033 12.5787 13.357 12.5412 13.4418 12.5337V10.5515C16.3518 10.6812 18.523 11.189 18.523 11.795C18.523 12.4025 16.3518 12.9087 13.4418 13.0377ZM13.4418 10.3452V8.57075H17.5023V5.86475H6.44651V8.57075H10.507V10.3445C7.20701 10.496 4.72526 11.15 4.72526 11.933C4.72526 12.716 7.20701 13.3692 10.507 13.5215V19.208H13.4418V13.52C16.7365 13.3685 19.2123 12.7152 19.2123 11.933C19.2123 11.1507 16.7365 10.4975 13.4418 10.3452Z"
          fill="white" />
</svg>