<svg viewBox="0 0 125 38" fill="none" xmlns="http://www.w3.org/2000/svg">
<g clip-path="url(#clip0_4770_2670)">
<path d="M18.9183 37.9978C29.3668 37.9978 37.8365 29.4914 37.8365 18.9978C37.8365 8.50409 29.3645 0 18.9183 0C8.47205 0 0 8.50636 0 19C0 29.4936 8.46977 38 18.9183 38V37.9978Z" fill="url(#paint0_linear_4770_2670)"/>
<path d="M30.4686 30.8808C36.9428 24.3311 36.9428 13.7099 30.4686 7.16024C23.9945 0.610668 13.498 0.610668 7.02158 7.16024C0.547493 13.7099 0.547493 24.3311 7.02158 30.8808C13.4957 37.4303 23.9945 37.4303 30.4686 30.8808Z" fill="url(#paint1_linear_4770_2670)"/>
<path d="M18.68 1.91895C9.37927 1.91895 1.8418 9.5466 1.8418 18.9535C1.8418 28.3603 9.38153 35.988 18.68 35.988C27.9784 35.988 35.5181 28.3603 35.5181 18.9535C35.5181 9.5466 27.9784 1.91895 18.68 1.91895ZM20.9391 3.12103C27.8634 4.12466 33.34 9.66293 34.3298 16.6678L29.8723 17.0397C29.0741 12.2313 25.3224 8.43575 20.5693 7.62828L20.9369 3.12103H20.9391ZM28.8239 18.9535C28.8239 24.6216 24.2806 29.2179 18.6776 29.2179C13.0747 29.2179 8.5315 24.6216 8.5315 18.9535C8.5315 13.2852 13.0747 8.68894 18.6776 8.68894C24.2806 8.68894 28.8239 13.2852 28.8239 18.9535ZM18.68 2.95679C18.8739 2.95679 19.0678 2.96135 19.2595 2.9682L19.1646 7.48001C19.0023 7.47317 18.8423 7.46861 18.6776 7.46861C18.5131 7.46861 18.353 7.47317 18.1906 7.48001L18.0959 2.9682C18.2876 2.96135 18.4815 2.95679 18.6754 2.95679H18.68ZM16.4207 3.12103L16.7883 7.62828C12.0353 8.43575 8.28349 12.2313 7.48532 17.0397L3.02777 16.6678C4.01984 9.66293 9.49427 4.12466 16.4185 3.12103H16.4207ZM2.86543 18.9535C2.86543 18.7573 2.86993 18.561 2.87669 18.3672L7.33651 18.463C7.32975 18.625 7.32523 18.7892 7.32523 18.9557C7.32523 19.1223 7.32975 19.2842 7.33651 19.4484L2.87669 19.5442C2.86993 19.3503 2.86543 19.1541 2.86543 18.9579V18.9535ZM16.4185 34.7859C9.49427 33.7821 4.01758 28.244 3.02777 21.239L7.48532 20.8672C8.28349 25.6756 12.0353 29.4711 16.7883 30.2785L16.4207 34.7859H16.4185ZM18.6776 34.95C18.4837 34.95 18.2898 34.9455 18.0983 34.9386L18.193 30.4269C18.3552 30.4337 18.5153 30.4383 18.68 30.4383C18.8446 30.4383 19.0046 30.4337 19.167 30.4269L19.2617 34.9386C19.07 34.9455 18.8761 34.95 18.6822 34.95H18.6776ZM20.9369 34.7859L20.5693 30.2785C25.3224 29.4711 29.0741 25.6756 29.8723 20.8672L34.3298 21.239C33.3378 28.244 27.8634 33.7845 20.9391 34.7859H20.9369ZM30.0189 19.4438C30.0256 19.2819 30.0302 19.1177 30.0302 18.9511C30.0302 18.7846 30.0256 18.6226 30.0189 18.4584L34.4787 18.3626C34.4854 18.5566 34.4899 18.7527 34.4899 18.9489C34.4899 19.1451 34.4854 19.3412 34.4787 19.535L30.0189 19.4392V19.4438Z" fill="#252735"/>
<path d="M18.7217 29.3013C24.3633 29.3013 28.9358 24.6801 28.9358 18.9784C28.9358 13.2767 24.3633 8.65544 18.7217 8.65544C13.0803 8.65544 8.50781 13.2767 8.50781 18.9784C8.50781 24.6801 13.0803 29.3013 18.7217 29.3013Z" fill="#252735"/>
<path d="M16.371 23.1675H14.748V27.4003H16.371V23.1675Z" fill="url(#paint2_linear_4770_2670)"/>
<path d="M16.371 10.3845H14.748V11.7665H16.371V10.3845Z" fill="url(#paint3_linear_4770_2670)"/>
<path d="M20.2166 10.3845H18.5938V11.4216H20.2166V10.3845Z" fill="url(#paint4_linear_4770_2670)"/>
<path d="M20.2166 23.1675H18.5938V27.4003H20.2166V23.1675Z" fill="url(#paint5_linear_4770_2670)"/>
<path d="M15.1855 17.1054H16.5913V15.0997H15.1855C13.5265 15.0997 12.1816 16.4657 12.1816 18.1516V20.1572C12.1816 18.4714 13.5265 17.1054 15.1855 17.1054Z" fill="url(#paint6_linear_4770_2670)"/>
<path d="M15.1855 20.7828C13.5265 20.7828 12.1816 22.1488 12.1816 23.8347V26.4525L16.5913 23.0009V20.7851H15.1855V20.7828Z" fill="url(#paint7_linear_4770_2670)"/>
<path d="M20.5059 20.7806L21.5773 20.7669C21.9366 20.7669 22.461 21.1575 22.461 21.7697C22.461 22.3819 21.9366 22.7725 21.5773 22.7725H22.2644C24.4071 22.7725 26.509 20.6664 25.6932 18.8344C25.3971 18.462 25.0467 18.1353 24.6535 17.8703C23.98 19.5425 22.3842 20.7303 20.5059 20.7783V20.7806Z" fill="url(#paint8_linear_4770_2670)"/>
<path d="M12.1816 23.8326C12.1816 22.1467 13.5265 20.7806 15.1855 20.7806H20.3863C22.9313 20.7806 24.9949 18.6859 24.9949 16.1001C24.9949 13.5142 22.9313 11.4194 20.3863 11.4194H15.1855C13.5265 11.4194 12.1816 12.7855 12.1816 14.4713V18.1491C12.1816 16.4633 13.5265 15.0973 15.1855 15.0973H19.8596C20.219 15.0973 20.7434 15.4879 20.7434 16.1001C20.7434 16.7123 20.2212 17.1029 19.8596 17.1029H15.1855C13.5265 17.1029 12.1816 18.4689 12.1816 20.1548V23.8326Z" fill="url(#paint9_linear_4770_2670)"/>
<path d="M12.1816 26.4501H22.1018C24.6468 26.4501 26.7104 24.3554 26.7104 21.7696C26.7104 20.6593 26.3284 19.6383 25.691 18.8342C26.5069 20.6663 24.4027 22.7724 22.2623 22.7724H15.1855C13.5265 22.7724 12.1816 24.1384 12.1816 25.8243V26.4501Z" fill="url(#paint10_linear_4770_2670)"/>
<g clip-path="url(#clip1_4770_2670)">
<path d="M53.8553 21.458C53.7216 26.3744 47.7013 25.5633 44.2226 25.5633H42.9648V12.2738C48.5308 12.1663 51.8485 12.0314 52.2224 16.0017C52.3288 16.9465 52.2224 17.6763 51.9809 18.2162C52.2224 18.3787 52.4625 18.5949 52.6767 18.8098C53.4529 19.5396 53.9072 20.4569 53.854 21.4567L53.8553 21.458ZM51.0996 21.3767C51.1268 19.9996 51.2605 19.3509 45.6414 19.8371L45.6686 22.8627C46.1229 22.8902 46.5786 22.9164 47.0069 22.9164C48.9072 22.9701 51.0736 22.7814 51.1009 21.3767H51.0996ZM45.6673 15.0556V17.3514C46.5773 17.2164 47.5131 17.1889 48.3698 17.1089C49.0383 17.0552 49.5471 16.8927 49.4667 16.2441C49.3602 14.9207 47.4067 15.0019 45.6673 15.0556Z" fill="url(#paint11_linear_4770_2670)"/>
<path d="M55.459 12.2742H58.1615V25.5638H55.459V12.2742Z" fill="url(#paint12_linear_4770_2670)"/>
<path d="M67.794 15.0024H65.1188V25.5638H62.4163V15.0024H58.9648V12.3018H62.4163V12.2742H65.1188V12.3018H69.0259L67.7953 15.0024H67.794Z" fill="url(#paint13_linear_4770_2670)"/>
<path d="M76.517 16.4609C76.517 16.4609 76.2756 14.8676 74.1624 14.84C73.3862 14.8125 72.7982 15.0824 72.4503 15.4611C72.2634 15.7036 72.1297 15.9473 72.0492 16.2172C71.996 16.4334 71.996 16.6496 72.022 16.8121C72.0492 16.8933 72.1024 16.9746 72.1556 17.0008C72.6645 17.2445 73.5471 17.352 74.457 17.4594C76.8649 17.7831 79.3272 18.0805 79.5946 20.5387C79.8088 22.3483 79.4337 23.6456 78.4173 24.5903C77.5347 25.4551 76.1704 25.86 74.3234 25.9413C70.4435 26.1038 68.8379 23.1856 68.8379 23.1594L71.273 21.8084C71.273 21.8084 72.0492 23.2393 74.2156 23.1319C75.3657 23.1044 76.1691 22.8882 76.543 22.537C76.8376 22.2396 76.9441 21.6997 76.8376 20.8349C76.8104 20.5924 75.4461 20.43 74.1351 20.2413C72.9851 20.0788 71.9142 19.9713 71.0316 19.5389C70.1216 19.134 69.5869 18.378 69.3454 17.4856C69.1845 16.8645 69.2117 16.1347 69.3727 15.4598C69.5869 14.8112 69.9075 14.1639 70.389 13.6227C71.247 12.6793 72.5308 12.0044 74.1897 12.0582C78.6575 12.1394 79.2468 16.001 79.2468 16.001L76.517 16.4596V16.4609Z" fill="url(#paint14_linear_4770_2670)"/>
<path d="M89.0382 15.0024H86.3629V25.5638H83.6604V15.0024H80.209V12.3018H83.6604V12.2742H86.3629V12.3018H90.2687L89.0382 15.0024Z" fill="url(#paint15_linear_4770_2670)"/>
<path d="M95.2198 16.2446L93.6674 20.08H95.0316L95.9415 22.7806H92.5705L91.4737 25.5625H88.4766L93.8283 12.2742H96.6113L101.936 25.5638H98.9659L95.2198 16.2446Z" fill="url(#paint16_linear_4770_2670)"/>
<path d="M105.681 21.5659V25.5638H103.006V12.2742H105.681V17.6218L111.113 12.2742H115.074L105.682 21.5659H105.681ZM109.801 19.7288L114.483 25.5625H110.737L107.767 21.6196L109.801 19.7288Z" fill="url(#paint17_linear_4770_2670)"/>
<path d="M118.63 14.9762V17.5418H124.543V20.27H118.63V22.8094H124.517L123.206 25.51L115.955 25.5638V12.2742H124.544V14.9749H118.632L118.63 14.9762Z" fill="url(#paint18_linear_4770_2670)"/>
</g>
</g>
<defs>
<linearGradient id="paint0_linear_4770_2670" x1="7.95203e-08" y1="38" x2="43.5601" y2="29.5679" gradientUnits="userSpaceOnUse">
<stop stop-color="#5057FF"/>
<stop offset="0.495" stop-color="#6046FF"/>
<stop offset="1" stop-color="#363BBA"/>
</linearGradient>
<linearGradient id="paint1_linear_4770_2670" x1="2.16602" y1="35.7929" x2="40.36" y2="28.4532" gradientUnits="userSpaceOnUse">
<stop stop-color="#5057FF"/>
<stop offset="0.495" stop-color="#6046FF"/>
<stop offset="1" stop-color="#363BBA"/>
</linearGradient>
<linearGradient id="paint2_linear_4770_2670" x1="14.7142" y1="25.3194" x2="16.3869" y2="25.25" gradientUnits="userSpaceOnUse">
<stop stop-color="white"/>
<stop offset="1" stop-color="#BDBDBD"/>
</linearGradient>
<linearGradient id="paint3_linear_4770_2670" x1="14.7255" y1="11.184" x2="16.376" y2="10.9737" gradientUnits="userSpaceOnUse">
<stop stop-color="white"/>
<stop offset="1" stop-color="#BDBDBD"/>
</linearGradient>
<linearGradient id="paint4_linear_4770_2670" x1="18.5847" y1="11.0469" x2="20.2131" y2="10.7672" gradientUnits="userSpaceOnUse">
<stop stop-color="white"/>
<stop offset="1" stop-color="#BDBDBD"/>
</linearGradient>
<linearGradient id="paint5_linear_4770_2670" x1="18.5598" y1="25.3194" x2="20.2348" y2="25.25" gradientUnits="userSpaceOnUse">
<stop stop-color="white"/>
<stop offset="1" stop-color="#BDBDBD"/>
</linearGradient>
<linearGradient id="paint6_linear_4770_2670" x1="12.1025" y1="17.7747" x2="16.617" y2="17.3452" gradientUnits="userSpaceOnUse">
<stop stop-color="white"/>
<stop offset="1" stop-color="#BDBDBD"/>
</linearGradient>
<linearGradient id="paint7_linear_4770_2670" x1="12.1003" y1="23.748" x2="16.6214" y2="23.3655" gradientUnits="userSpaceOnUse">
<stop stop-color="white"/>
<stop offset="1" stop-color="#BDBDBD"/>
</linearGradient>
<linearGradient id="paint8_linear_4770_2670" x1="20.4403" y1="20.7029" x2="25.9049" y2="20.0519" gradientUnits="userSpaceOnUse">
<stop stop-color="white"/>
<stop offset="1" stop-color="#BDBDBD"/>
</linearGradient>
<linearGradient id="paint9_linear_4770_2670" x1="11.933" y1="17.8179" x2="25.0006" y2="16.3482" gradientUnits="userSpaceOnUse">
<stop stop-color="white"/>
<stop offset="1" stop-color="#BDBDBD"/>
</linearGradient>
<linearGradient id="paint10_linear_4770_2670" x1="12.3941" y1="25.1366" x2="26.7773" y2="22.1463" gradientUnits="userSpaceOnUse">
<stop stop-color="white"/>
<stop offset="1" stop-color="#BDBDBD"/>
</linearGradient>
<linearGradient id="paint11_linear_4770_2670" x1="42.7535" y1="19.1319" x2="53.9158" y2="18.1414" gradientUnits="userSpaceOnUse">
<stop stop-color="white"/>
<stop offset="1" stop-color="#BDBDBD"/>
</linearGradient>
<linearGradient id="paint12_linear_4770_2670" x1="55.4065" y1="19.1245" x2="58.1962" y2="19.0627" gradientUnits="userSpaceOnUse">
<stop stop-color="white"/>
<stop offset="1" stop-color="#BDBDBD"/>
</linearGradient>
<linearGradient id="paint13_linear_4770_2670" x1="58.7696" y1="19.1245" x2="69.09" y2="18.2732" gradientUnits="userSpaceOnUse">
<stop stop-color="white"/>
<stop offset="1" stop-color="#BDBDBD"/>
</linearGradient>
<linearGradient id="paint14_linear_4770_2670" x1="68.8379" y1="25.9478" x2="81.466" y2="24.0367" gradientUnits="userSpaceOnUse">
<stop stop-color="#5057FF"/>
<stop offset="0.495" stop-color="#6046FF"/>
<stop offset="1" stop-color="#363BBA"/>
</linearGradient>
<linearGradient id="paint15_linear_4770_2670" x1="80.209" y1="25.5638" x2="91.9697" y2="23.833" gradientUnits="userSpaceOnUse">
<stop stop-color="#5057FF"/>
<stop offset="0.495" stop-color="#6046FF"/>
<stop offset="1" stop-color="#363BBA"/>
</linearGradient>
<linearGradient id="paint16_linear_4770_2670" x1="88.4766" y1="25.5638" x2="103.952" y2="22.5167" gradientUnits="userSpaceOnUse">
<stop stop-color="#5057FF"/>
<stop offset="0.495" stop-color="#6046FF"/>
<stop offset="1" stop-color="#363BBA"/>
</linearGradient>
<linearGradient id="paint17_linear_4770_2670" x1="103.006" y1="25.5638" x2="116.984" y2="23.0961" gradientUnits="userSpaceOnUse">
<stop stop-color="#5057FF"/>
<stop offset="0.495" stop-color="#6046FF"/>
<stop offset="1" stop-color="#363BBA"/>
</linearGradient>
<linearGradient id="paint18_linear_4770_2670" x1="115.955" y1="25.5638" x2="126.054" y2="24.2948" gradientUnits="userSpaceOnUse">
<stop stop-color="#5057FF"/>
<stop offset="0.495" stop-color="#6046FF"/>
<stop offset="1" stop-color="#363BBA"/>
</linearGradient>
<clipPath id="clip0_4770_2670">
<rect width="125" height="38" fill="white"/>
</clipPath>
<clipPath id="clip1_4770_2670">
<rect width="81.5784" height="13.8923" fill="white" transform="translate(42.9648 12.0552)"/>
</clipPath>
</defs>
</svg>
