<svg width="38" height="38" viewBox="0 0 38 38" fill="none" xmlns="http://www.w3.org/2000/svg">
<path d="M18.9183 37.9978C29.3668 37.9978 37.8365 29.4914 37.8365 18.9978C37.8365 8.50409 29.3645 0 18.9183 0C8.47205 0 0 8.50636 0 19C0 29.4936 8.46977 38 18.9183 38V37.9978Z" fill="url(#paint0_linear_401_3440)"/>
<path d="M30.4681 30.8807C36.9423 24.3311 36.9423 13.7099 30.4681 7.16023C23.994 0.610653 13.4975 0.610653 7.0211 7.16023C0.547005 13.7099 0.547005 24.3311 7.0211 30.8807C13.4952 37.4302 23.994 37.4302 30.4681 30.8807Z" fill="url(#paint1_linear_401_3440)"/>
<path d="M18.68 1.91797C9.37927 1.91797 1.8418 9.54562 1.8418 18.9525C1.8418 28.3593 9.38153 35.987 18.68 35.987C27.9784 35.987 35.5181 28.3593 35.5181 18.9525C35.5181 9.54562 27.9784 1.91797 18.68 1.91797ZM20.9391 3.12005C27.8634 4.12369 33.34 9.66195 34.3298 16.6669L29.8723 17.0387C29.0741 12.2303 25.3224 8.43477 20.5693 7.6273L20.9369 3.12005H20.9391ZM28.8239 18.9525C28.8239 24.6207 24.2806 29.217 18.6776 29.217C13.0747 29.217 8.5315 24.6207 8.5315 18.9525C8.5315 13.2842 13.0747 8.68796 18.6776 8.68796C24.2806 8.68796 28.8239 13.2842 28.8239 18.9525ZM18.68 2.95581C18.8739 2.95581 19.0678 2.96037 19.2595 2.96723L19.1646 7.47903C19.0023 7.47219 18.8423 7.46763 18.6776 7.46763C18.5131 7.46763 18.353 7.47219 18.1906 7.47903L18.0959 2.96723C18.2876 2.96037 18.4815 2.95581 18.6754 2.95581H18.68ZM16.4207 3.12005L16.7883 7.6273C12.0353 8.43477 8.28349 12.2303 7.48532 17.0387L3.02777 16.6669C4.01984 9.66195 9.49427 4.12369 16.4185 3.12005H16.4207ZM2.86543 18.9525C2.86543 18.7563 2.86993 18.5601 2.87669 18.3663L7.33651 18.462C7.32975 18.624 7.32523 18.7882 7.32523 18.9547C7.32523 19.1213 7.32975 19.2832 7.33651 19.4474L2.87669 19.5432C2.86993 19.3493 2.86543 19.1531 2.86543 18.957V18.9525ZM16.4185 34.7849C9.49427 33.7812 4.01758 28.243 3.02777 21.238L7.48532 20.8663C8.28349 25.6746 12.0353 29.4701 16.7883 30.2776L16.4207 34.7849H16.4185ZM18.6776 34.9491C18.4837 34.9491 18.2898 34.9445 18.0983 34.9377L18.193 30.4259C18.3552 30.4327 18.5153 30.4373 18.68 30.4373C18.8446 30.4373 19.0046 30.4327 19.167 30.4259L19.2617 34.9377C19.07 34.9445 18.8761 34.9491 18.6822 34.9491H18.6776ZM20.9369 34.7849L20.5693 30.2776C25.3224 29.4701 29.0741 25.6746 29.8723 20.8663L34.3298 21.238C33.3378 28.243 27.8634 33.7835 20.9391 34.7849H20.9369ZM30.0189 19.4428C30.0256 19.2809 30.0302 19.1167 30.0302 18.9501C30.0302 18.7836 30.0256 18.6216 30.0189 18.4575L34.4787 18.3617C34.4854 18.5556 34.4899 18.7518 34.4899 18.9479C34.4899 19.1441 34.4854 19.3402 34.4787 19.534L30.0189 19.4383V19.4428Z" fill="#252735"/>
<path d="M18.7212 29.3021C24.3628 29.3021 28.9353 24.6809 28.9353 18.9792C28.9353 13.2775 24.3628 8.65625 18.7212 8.65625C13.0798 8.65625 8.50732 13.2775 8.50732 18.9792C8.50732 24.6809 13.0798 29.3021 18.7212 29.3021Z" fill="#252735"/>
<path d="M16.3705 23.168H14.7476V27.4008H16.3705V23.168Z" fill="url(#paint2_linear_401_3440)"/>
<path d="M16.3705 10.3848H14.7476V11.7668H16.3705V10.3848Z" fill="url(#paint3_linear_401_3440)"/>
<path d="M20.2156 10.3848H18.5928V11.4219H20.2156V10.3848Z" fill="url(#paint4_linear_401_3440)"/>
<path d="M20.2156 23.168H18.5928V27.4008H20.2156V23.168Z" fill="url(#paint5_linear_401_3440)"/>
<path d="M15.1862 17.1055H16.5921V15.0997H15.1862C13.5273 15.0997 12.1824 16.4658 12.1824 18.1517V20.1573C12.1824 18.4715 13.5273 17.1055 15.1862 17.1055Z" fill="url(#paint6_linear_401_3440)"/>
<path d="M15.186 20.7832C13.527 20.7832 12.1821 22.1492 12.1821 23.8351V26.4529L16.5918 23.0014V20.7856H15.186V20.7832Z" fill="url(#paint7_linear_401_3440)"/>
<path d="M20.5054 20.7814L21.5768 20.7676C21.9361 20.7676 22.4605 21.1582 22.4605 21.7704C22.4605 22.3826 21.9361 22.7732 21.5768 22.7732H22.2639C24.4066 22.7732 26.5086 20.6671 25.6927 18.8351C25.3966 18.4627 25.0462 18.136 24.653 17.8711C23.9795 19.5432 22.3837 20.7311 20.5054 20.779V20.7814Z" fill="url(#paint8_linear_401_3440)"/>
<path d="M12.1821 23.833C12.1821 22.1471 13.527 20.7811 15.186 20.7811H20.3867C22.9318 20.7811 24.9953 18.6864 24.9953 16.1006C24.9953 13.5147 22.9318 11.4199 20.3867 11.4199H15.186C13.527 11.4199 12.1821 12.786 12.1821 14.4718V18.1495C12.1821 16.4638 13.527 15.0977 15.186 15.0977H19.8601C20.2195 15.0977 20.7438 15.4884 20.7438 16.1006C20.7438 16.7127 20.2217 17.1034 19.8601 17.1034H15.186C13.527 17.1034 12.1821 18.4694 12.1821 20.1553V23.833Z" fill="url(#paint9_linear_401_3440)"/>
<path d="M12.1824 26.4501H22.1025C24.6476 26.4501 26.7111 24.3554 26.7111 21.7695C26.7111 20.6593 26.3292 19.6383 25.6918 18.8341C26.5077 20.6662 24.4034 22.7723 22.263 22.7723H15.1862C13.5273 22.7723 12.1824 24.1384 12.1824 25.8243V26.4501Z" fill="url(#paint10_linear_401_3440)"/>
<defs>
<linearGradient id="paint0_linear_401_3440" x1="7.95203e-08" y1="38" x2="43.5601" y2="29.5679" gradientUnits="userSpaceOnUse">
<stop stop-color="#5057FF"/>
<stop offset="0.495" stop-color="#6046FF"/>
<stop offset="1" stop-color="#363BBA"/>
</linearGradient>
<linearGradient id="paint1_linear_401_3440" x1="2.16553" y1="35.7929" x2="40.3596" y2="28.4532" gradientUnits="userSpaceOnUse">
<stop stop-color="#5057FF"/>
<stop offset="0.495" stop-color="#6046FF"/>
<stop offset="1" stop-color="#363BBA"/>
</linearGradient>
<linearGradient id="paint2_linear_401_3440" x1="14.7138" y1="25.3198" x2="16.3864" y2="25.2504" gradientUnits="userSpaceOnUse">
<stop stop-color="white"/>
<stop offset="1" stop-color="#BDBDBD"/>
</linearGradient>
<linearGradient id="paint3_linear_401_3440" x1="14.725" y1="11.1843" x2="16.3755" y2="10.974" gradientUnits="userSpaceOnUse">
<stop stop-color="white"/>
<stop offset="1" stop-color="#BDBDBD"/>
</linearGradient>
<linearGradient id="paint4_linear_401_3440" x1="18.5837" y1="11.0472" x2="20.2121" y2="10.7675" gradientUnits="userSpaceOnUse">
<stop stop-color="white"/>
<stop offset="1" stop-color="#BDBDBD"/>
</linearGradient>
<linearGradient id="paint5_linear_401_3440" x1="18.5588" y1="25.3198" x2="20.2338" y2="25.2504" gradientUnits="userSpaceOnUse">
<stop stop-color="white"/>
<stop offset="1" stop-color="#BDBDBD"/>
</linearGradient>
<linearGradient id="paint6_linear_401_3440" x1="12.1033" y1="17.7748" x2="16.6178" y2="17.3453" gradientUnits="userSpaceOnUse">
<stop stop-color="white"/>
<stop offset="1" stop-color="#BDBDBD"/>
</linearGradient>
<linearGradient id="paint7_linear_401_3440" x1="12.1008" y1="23.7484" x2="16.6218" y2="23.3659" gradientUnits="userSpaceOnUse">
<stop stop-color="white"/>
<stop offset="1" stop-color="#BDBDBD"/>
</linearGradient>
<linearGradient id="paint8_linear_401_3440" x1="20.4398" y1="20.7037" x2="25.9044" y2="20.0527" gradientUnits="userSpaceOnUse">
<stop stop-color="white"/>
<stop offset="1" stop-color="#BDBDBD"/>
</linearGradient>
<linearGradient id="paint9_linear_401_3440" x1="11.9335" y1="17.8184" x2="25.0011" y2="16.3487" gradientUnits="userSpaceOnUse">
<stop stop-color="white"/>
<stop offset="1" stop-color="#BDBDBD"/>
</linearGradient>
<linearGradient id="paint10_linear_401_3440" x1="12.3948" y1="25.1366" x2="26.7781" y2="22.1462" gradientUnits="userSpaceOnUse">
<stop stop-color="white"/>
<stop offset="1" stop-color="#BDBDBD"/>
</linearGradient>
</defs>
</svg>
