<svg xmlns="http://www.w3.org/2000/svg" xml:space="preserve" viewBox="0 0 16 16" id="snapchat">
  <path fill="none" stroke="#000" stroke-miterlimit="10" d="M15.206 10.954c-2.005-.328-2.909-2.373-2.946-2.46l-.008-.017c-.103-.207-.126-.377-.071-.507.109-.256.529-.388.807-.476.08-.025.156-.049.219-.074.274-.107.469-.224.598-.356.154-.158.184-.308.182-.407-.005-.239-.189-.451-.482-.555a.86.86 0 0 0-.326-.062.75.75 0 0 0-.304.061 1.712 1.712 0 0 1-.625.177.57.57 0 0 1-.207-.045l.018-.289.003-.043c.064-1.011.144-2.268-.191-3.015a4.083 4.083 0 0 0-.918-1.308 3.825 3.825 0 0 0-1.098-.72A4.389 4.389 0 0 0 8.144.5h-.037l-.258.003c-.333 0-.999.047-1.715.36a3.82 3.82 0 0 0-1.094.72 4.082 4.082 0 0 0-.914 1.304c-.335.746-.255 2.003-.191 3.013v.002l.02.331a.597.597 0 0 1-.246.046c-.189 0-.414-.06-.668-.178a.595.595 0 0 0-.254-.052.903.903 0 0 0-.449.125c-.175.101-.287.244-.318.403-.02.106-.019.314.214.524.128.116.316.224.558.319.064.025.139.049.219.074.278.087.699.22.808.476.056.13.032.3-.071.507l-.007.017a4.931 4.931 0 0 1-.755 1.163 4.229 4.229 0 0 1-.912.801 3.378 3.378 0 0 1-1.28.496.35.35 0 0 0-.294.364.462.462 0 0 0 .036.152l.001.001c.072.166.238.308.508.432.33.152.824.28 1.467.38.033.061.066.216.09.321.024.112.05.228.086.35.039.133.141.291.402.291a1.9 1.9 0 0 0 .345-.048c.193-.038.457-.089.787-.089.183 0 .372.016.563.047.368.061.684.283 1.051.54.536.379 1.144.805 2.072.805a.965.965 0 0 0 .076-.003c.03.002.068.003.108.003.928 0 1.536-.426 2.072-.803l.001-.001c.367-.257.683-.479 1.051-.54.191-.031.38-.047.563-.047.315 0 .564.04.787.083.145.028.258.042.345.042h.017a.379.379 0 0 0 .385-.286c.036-.12.061-.233.086-.347.022-.099.057-.258.089-.32.644-.1 1.137-.228 1.467-.38.269-.124.435-.265.507-.431a.44.44 0 0 0 .037-.154.348.348 0 0 0-.293-.362z"></path>
</svg>
